[img]http://img9.imageshack.us/img9/9793/skykn.jpg[/img]
[code]
Skyfall.2012.DVDRIP.XVID.AC3.5.1-26K
 
http://www.imdb.com/title/tt1074638

Plot:
Bond's loyalty to M is tested as her past comes back to haunt her, bringing MI6 under attack.

Sources - Audio-DVD9....Thanks :P
          VIDEO-DVD9k.....Thanks :P
          Subs-ENG SUBS IN TORRENT....
Video
ID                                       : 0
Format                                   : MPEG-4 Visual
Format profile                           : Simple@L5
Format settings, BVOP                    : No
Format settings, QPel                    : No
Format settings, GMC                     : No warppoints
Format settings, Matrix                  : Default (H.263)
Codec ID                                 : XVID
Codec ID/Hint                            : XviD
Duration                                 : 2h 23mn
Bit rate                                 : 1 245 Kbps
Width                                    : 720 pixels
Height                                   : 304 pixels
Display aspect ratio                     : 2.35:1
Frame rate                               : 23.976 fps
Color space                              : YUV
Chroma subsampling                       : 4:2:0
Bit depth                                : 8 bits
Scan type                                : Progressive
Compression mode                         : Lossy
Bits/(Pixel*Frame)                       : 0.237
Stream size                              : 1.25 GiB (73%)
Writing library                          : XviD 64

Audio
ID                                       : 1
Format                                   : AC-3
Format/Info                              : Audio Coding 3
Codec ID                                 : 2000
Duration                                 : 2h 23mn
Bit rate mode                            : Constant
Bit rate                                 : 448 Kbps
Channel(s)                               : 6 channels
Sampling rate                            : 48.0 KHz
Compression mode                         : Lossy
Stream size                              : 459 MiB (26%)
Alignment                                : Aligned on interleaves
Interleave, duration                     : 4295024 ms (102 977.50 video frames)

Notes -
ENJOY...

[/code]

Screens:
[img]http://imageshack.us/a/img850/9412/87060297.png[/img]
[img]http://imageshack.us/a/img829/6377/62658429.png[/img]
[img]http://imageshack.us/a/img838/1776/41051443.png[/img]
[img]http://imageshack.us/a/img259/751/26956791.png[/img]
[img]http://imageshack.us/a/img233/5536/71838748.png[/img]
[img]http://imageshack.us/a/img163/5922/68799633.png[/img]
[img]http://imageshack.us/a/img836/8343/96419874.png[/img]
[img]http://imageshack.us/a/img37/4543/68683912.png[/img]
[img]http://imageshack.us/a/img690/9623/21346331.png[/img]
[img]http://imageshack.us/a/img259/2511/90593815.png[/img]

Greetz:
Silent Hill-HD|CM8|RX|VISION|HDSCENE|xTriLL|DTRG|CRYS|BIDA|RX|REFILL|INSPiRAL|AXED|HOPE|Anonymous|NOIR|Blackjesus|Gabroo Punjab Deh|UNiQUE|DQ1|RESiSTANCE|HS||LEGION|STN|BOBBYBLUE|LIFT

To all the people who have helped me  you know who you are

Anything to offer email us @: 26k@hushmail.me
&lt;&lt;bullying has to be stopped now!&gt;&gt;